<svg width="124" height="124" viewBox="0 0 124 124" version="1.1" xmlns="http://www.w3.org/2000/svg"><title>owl-happy</title><g stroke="none" stroke-width="1" fill="none" fill-rule="evenodd"><g><path d="M61.616 62.43l-19.88-49.156c-1.065-2.635-4.39-3.466-6.566-1.642-10.456 8.767-14.168 23.494-8.916 36.481 5.252 12.987 18.163 21.005 31.78 20.055 2.834-.197 4.648-3.103 3.582-5.738z" fill="#78C800" fill-rule="nonzero"/><g transform="translate(21.217 17.53)"><path d="M77.852 81.78L67.43 32.746c-.558-2.628-3.52-3.946-5.847-2.603-11.186 6.452-17.071 19.56-14.317 32.514 2.753 12.955 13.461 22.535 26.304 23.88 2.673.28 4.842-2.129 4.283-4.757z" fill="#78C800" fill-rule="nonzero"/><path d="M12.053 90.349a3.933 3.933 0 0 1 1.72-5.294l3.84-1.954a3.944 3.944 0 0 1 5.302 1.723 3.933 3.933 0 0 1-1.72 5.294l-3.84 1.953a3.944 3.944 0 0 1-5.302-1.722zM33.308 88.521a3.953 3.953 0 0 1 3.953-3.953h6.301a3.953 3.953 0 1 1 0 7.906h-6.3a3.953 3.953 0 0 1-3.954-3.953z" fill="#F49000"/><path d="M9.75 88.505a3.937 3.937 0 0 1 3.937-3.937h.557a3.937 3.937 0 0 1 0 7.875h-.557a3.937 3.937 0 0 1-3.937-3.938z" fill="#F49000"/><path d="M44.144 7.547c5.704 6.54 9.884 10.456 12.541 11.75 2.637 1.283 8.207 2.142 16.71 2.575a10.199 10.199 0 0 1 8.645 14.663L68.162 64.94c-7.39 15.125-25.633 21.407-40.768 14.038C12.285 71.621 6 53.41 13.357 38.302l.018-.038 13.92-28.49c2.472-5.061 8.58-7.16 13.64-4.686a10.199 10.199 0 0 1 3.21 2.46z" fill="#78C800"/><path d="M44.787 14.004l3.876 12.951a1.055 1.055 0 0 1-1.052 1.346c-3.449-.121-6.483-2.475-7.46-5.874-.979-3.4.343-6.999 3.203-8.923.595-.4 1.234-.19 1.433.5z" fill="#8EE000" fill-rule="nonzero"/><path d="M48.049 24.3c1.27 4.373 6.333 6.822 10.514 5.103L49.97 46.99c.017-.036-3.485-1.741-10.508-5.116 2.498-5.18 5.36-11.039 8.587-17.574z" fill="#8EE000"/><path d="M39.7 14.08l3.704 12.875a1.055 1.055 0 0 1-1.052 1.346c-3.449-.122-6.484-2.478-7.462-5.88-.979-3.401.343-7.002 3.202-8.927.595-.401 1.41-.104 1.608.586z" fill="#8EE000" fill-rule="nonzero"/><g fill="#8EE000" fill-rule="nonzero"><path d="M68.17 25.449l-12.504 5.138a1.055 1.055 0 0 0-.383 1.665c2.264 2.603 6.003 3.48 9.26 2.1 3.257-1.379 5.222-4.671 4.918-8.105-.063-.714-.63-1.078-1.29-.798z"/><path d="M71.313 29.45l-12.336 5.224a1.055 1.055 0 0 0-.385 1.665c2.265 2.603 6.006 3.479 9.266 2.098 3.259-1.38 5.226-4.673 4.923-8.107a1.059 1.059 0 0 0-1.468-.88z"/></g><path d="M41.61 17.36l.059.027c6.019 2.931 8.523 10.187 5.592 16.206l-.008.015-2.98 6.099c-2.936 6.01-10.185 8.505-16.198 5.577l-.058-.028c-6.02-2.931-8.523-10.187-5.592-16.206l.007-.015 2.98-6.099c2.936-6.01 10.185-8.505 16.199-5.577zM68.011 29.942l.911.444c5.622 2.737 7.961 9.514 5.224 15.136l-.007.014-3.682 7.536c-2.742 5.613-9.513 7.944-15.13 5.21l-.853-.416c-5.597-2.725-7.944-9.458-5.254-15.072l3.624-7.564c2.702-5.64 9.464-8.02 15.103-5.319l.064.031z" fill="#8EE000"/><path d="M39.287 21.018a8.352 8.352 0 0 1 3.848 11.176l-2.193 4.488a8.375 8.375 0 0 1-11.191 3.853 8.352 8.352 0 0 1-3.848-11.176l2.192-4.488a8.375 8.375 0 0 1 11.192-3.853zM66.06 34.142a8.352 8.352 0 0 1 3.848 11.176l-2.193 4.489a8.375 8.375 0 0 1-11.191 3.853 8.352 8.352 0 0 1-3.848-11.176l2.192-4.488a8.375 8.375 0 0 1 11.192-3.854z" fill="#FFF"/><path d="M38.292 26.003a3.938 3.938 0 0 1 1.814 5.269l-1.883 3.853a3.948 3.948 0 0 1-5.276 1.816 3.938 3.938 0 0 1-1.814-5.268l1.883-3.854a3.948 3.948 0 0 1 5.276-1.816zM62.674 37.696a3.938 3.938 0 0 1 1.814 5.268l-1.882 3.853a3.948 3.948 0 0 1-5.276 1.817 3.938 3.938 0 0 1-1.814-5.269l1.882-3.853a3.948 3.948 0 0 1 5.276-1.816z" fill="#4B4B4B"/><path d="M66.255 55.457l4.14-8.418c-7.76-1.493-14.226-1.009-21.53 1.389l3.242 7.961c4.707-2.055 9.347-2.357 14.148-.932zM22.55 35.539l3.035-8.876c6.545 4.423 10.775 9.33 14.24 16.18l-7.931 3.341c-1.873-4.776-4.94-8.264-9.344-10.645z" fill="#8EE000" fill-rule="nonzero"/><path d="M46.61 40.712l.023.011a4.289 4.289 0 0 1 1.978 5.739l-2.533 5.19a4.289 4.289 0 0 1-5.73 1.975l-.023-.01a4.289 4.289 0 0 1-1.978-5.739l2.533-5.19a4.289 4.289 0 0 1 5.73-1.976z" fill="#F49000"/><path d="M46.118 41.528a2.997 2.997 0 0 1 1.44 4.018l-2.27 4.717a3.081 3.081 0 0 1-4.074 1.459 2.997 2.997 0 0 1-1.439-4.018l2.27-4.717a3.081 3.081 0 0 1 4.073-1.459z" fill="#BE7000"/><path d="M39.323 41.992c1.648-2.23 4.834-3.034 7.651-1.662 2.511 1.222 3.838 4.223 3.092 6.893l-.152.31-5.818-1.701-4.925-3.529.152-.31z" fill="#FFC200" fill-rule="nonzero"/><path d="M44.462 41.673a3.738 3.738 0 0 1 2.364 1.15" stroke="#FFDE00" stroke-width="1.7" stroke-linecap="round" stroke-linejoin="round"/><path d="M28.208 55.327l6.867 3.34c.368.179.46.652.18.935-1.34 1.358-3.477 1.707-5.29.824-1.815-.882-2.855-2.776-2.607-4.666.052-.393.482-.612.85-.433z" fill="#8EE000" fill-rule="nonzero"/><ellipse fill="#FFF" transform="rotate(26 58.097 38.127)" cx="58.097" cy="38.127" rx="2.509" ry="2.506"/><path d="M40.16 61.292l6.867 3.34c.368.18.46.653.18.936-1.34 1.358-3.477 1.707-5.29.824-1.815-.882-2.855-2.776-2.607-4.666.052-.393.482-.613.85-.434zM31.316 64.156l6.866 3.34c.368.179.46.653.18.935-1.34 1.358-3.476 1.707-5.29.825-1.814-.883-2.855-2.777-2.606-4.666.051-.393.482-.613.85-.434z" fill="#8EE000" fill-rule="nonzero"/><ellipse fill="#FFF" transform="rotate(26 34.193 26.434)" cx="34.193" cy="26.434" rx="2.509" ry="2.506"/><path d="M4.844 92.397H58.1a2.38 2.38 0 0 1 2.38 2.38v.24a2.38 2.38 0 0 1-2.38 2.38H4.844a2.38 2.38 0 0 1-2.38-2.38v-.24a2.38 2.38 0 0 1 2.38-2.38z" fill="#E2E2E2"/></g></g></g></svg>